<svg version="1" xmlns="http://www.w3.org/2000/svg" width="933.333" height="933.333" viewBox="0 0 700.000000 700.000000"><path d="M160.2 132.6c-9.6 1.7-16.2 3.9-24.5 8.2-23.4 12-39.1 31.8-45.8 57.7l-2.3 9v136.7L87.5 481H75.3c-6.8.1-17.5.1-23.8.1-6.4.1-14.3.7-17.7 1.5C6.7 489-7.5 518.3 4.5 543.5c5.6 11.9 15.3 20 28 23.6 5.8 1.6 25.9 1.7 316.8 1.7 338.2 0 317.1.4 327.9-5.5 6.6-3.6 14.3-11.3 17.4-17.6 4.1-8 5.4-14.1 4.9-23.6-.3-7.2-.9-9.5-3.9-15.6-6-12.1-15.4-20.1-28.1-23.6-5.1-1.4-10.6-1.7-30-1.7-13 0-24-.4-24.3-.7-.4-.4-.7-61.3-.8-135.3 0-74.1-.4-136.7-.8-139.2-5.9-36.9-33.2-65.5-69.6-73-7.9-1.6-21-1.8-191.5-1.7-146.5 0-184.5.2-190.3 1.3z"/></svg>